<svg xmlns="http://www.w3.org/2000/svg" width="1280" height="650" viewBox="0 0 1280 650" role="img" aria-labelledby="title desc">
<title id="title">Held-out morphology quality</title>
<desc id="desc">Grouped bars compare accuracy, precision, recall, and F1 for kfind profiles and pinned external quality snapshots.</desc>

<style>
  .background { fill: #ffffff; }
  text { fill: #111827; font-family: -apple-system, BlinkMacSystemFont, "Segoe UI", sans-serif; }
  .muted { fill: #4b5563; }
  .grid { stroke: #d1d5db; stroke-width: 1; }
  .axis { stroke: #6b7280; stroke-width: 1; }
  @media (prefers-color-scheme: dark) {
    .background { fill: #0d1117; }
    text { fill: #f3f4f6; }
    .muted { fill: #9ca3af; }
    .grid { stroke: #374151; }
    .axis { stroke: #9ca3af; }
  }
</style>

<rect class="background" width="1280" height="650"/>
<text x="80.0" y="38.0" text-anchor="start">Held-out morphology quality</text>
<text x="80.0" y="62.0" text-anchor="start" class="muted">1,000 balanced lemma/POS presence cases · percent</text>
<line class="grid" x1="80" y1="530.0" x2="1248" y2="530.0"/>
<text x="70.0" y="535.0" text-anchor="end" class="muted">0</text>
<line class="grid" x1="80" y1="441.2" x2="1248" y2="441.2"/>
<text x="70.0" y="446.2" text-anchor="end" class="muted">20</text>
<line class="grid" x1="80" y1="352.4" x2="1248" y2="352.4"/>
<text x="70.0" y="357.4" text-anchor="end" class="muted">40</text>
<line class="grid" x1="80" y1="263.6" x2="1248" y2="263.6"/>
<text x="70.0" y="268.6" text-anchor="end" class="muted">60</text>
<line class="grid" x1="80" y1="174.8" x2="1248" y2="174.8"/>
<text x="70.0" y="179.8" text-anchor="end" class="muted">80</text>
<line class="grid" x1="80" y1="86.0" x2="1248" y2="86.0"/>
<text x="70.0" y="91.0" text-anchor="end" class="muted">100</text>
<rect x="93.0" y="123.7" width="36.0" height="406.3" rx="3" fill="#2563eb"/>
<text x="111.0" y="115.7" text-anchor="middle">91.50</text>
<rect x="139.0" y="121.1" width="36.0" height="408.9" rx="3" fill="#7c3aed"/>
<text x="157.0" y="97.1" text-anchor="middle">92.10</text>
<rect x="185.0" y="118.9" width="36.0" height="411.1" rx="3" fill="#059669"/>
<text x="203.0" y="110.9" text-anchor="middle">92.60</text>
<rect x="231.0" y="133.5" width="36.0" height="396.5" rx="3" fill="#d97706"/>
<text x="249.0" y="109.5" text-anchor="middle">89.30</text>
<rect x="277.0" y="129.1" width="36.0" height="400.9" rx="3" fill="#dc2626"/>
<text x="295.0" y="121.1" text-anchor="middle">90.30</text>
<rect x="323.0" y="127.7" width="36.0" height="402.3" rx="3" fill="#0891b2"/>
<text x="341.0" y="103.7" text-anchor="middle">90.60</text>
<text x="226.0" y="558.0" text-anchor="middle">Accuracy</text>
<rect x="385.0" y="86.0" width="36.0" height="444.0" rx="3" fill="#2563eb"/>
<text x="403.0" y="78.0" text-anchor="middle">100.00</text>
<rect x="431.0" y="86.0" width="36.0" height="444.0" rx="3" fill="#7c3aed"/>
<text x="449.0" y="62.0" text-anchor="middle">100.00</text>
<rect x="477.0" y="86.0" width="36.0" height="444.0" rx="3" fill="#059669"/>
<text x="495.0" y="78.0" text-anchor="middle">100.00</text>
<rect x="523.0" y="86.0" width="36.0" height="444.0" rx="3" fill="#d97706"/>
<text x="541.0" y="62.0" text-anchor="middle">100.00</text>
<rect x="569.0" y="86.0" width="36.0" height="444.0" rx="3" fill="#dc2626"/>
<text x="587.0" y="78.0" text-anchor="middle">100.00</text>
<rect x="615.0" y="86.0" width="36.0" height="444.0" rx="3" fill="#0891b2"/>
<text x="633.0" y="62.0" text-anchor="middle">100.00</text>
<text x="518.0" y="558.0" text-anchor="middle">Precision</text>
<rect x="677.0" y="161.5" width="36.0" height="368.5" rx="3" fill="#2563eb"/>
<text x="695.0" y="153.5" text-anchor="middle">83.00</text>
<rect x="723.0" y="156.2" width="36.0" height="373.8" rx="3" fill="#7c3aed"/>
<text x="741.0" y="132.2" text-anchor="middle">84.20</text>
<rect x="769.0" y="151.7" width="36.0" height="378.3" rx="3" fill="#059669"/>
<text x="787.0" y="143.7" text-anchor="middle">85.20</text>
<rect x="815.0" y="181.0" width="36.0" height="349.0" rx="3" fill="#d97706"/>
<text x="833.0" y="157.0" text-anchor="middle">78.60</text>
<rect x="861.0" y="172.1" width="36.0" height="357.9" rx="3" fill="#dc2626"/>
<text x="879.0" y="164.1" text-anchor="middle">80.60</text>
<rect x="907.0" y="169.5" width="36.0" height="360.5" rx="3" fill="#0891b2"/>
<text x="925.0" y="145.5" text-anchor="middle">81.20</text>
<text x="810.0" y="558.0" text-anchor="middle">Recall</text>
<rect x="969.0" y="127.2" width="36.0" height="402.8" rx="3" fill="#2563eb"/>
<text x="987.0" y="119.2" text-anchor="middle">90.71</text>
<rect x="1015.0" y="124.1" width="36.0" height="405.9" rx="3" fill="#7c3aed"/>
<text x="1033.0" y="100.1" text-anchor="middle">91.42</text>
<rect x="1061.0" y="121.5" width="36.0" height="408.5" rx="3" fill="#059669"/>
<text x="1079.0" y="113.5" text-anchor="middle">92.01</text>
<rect x="1107.0" y="139.2" width="36.0" height="390.8" rx="3" fill="#d97706"/>
<text x="1125.0" y="115.2" text-anchor="middle">88.02</text>
<rect x="1153.0" y="133.7" width="36.0" height="396.3" rx="3" fill="#dc2626"/>
<text x="1171.0" y="125.7" text-anchor="middle">89.26</text>
<rect x="1199.0" y="132.1" width="36.0" height="397.9" rx="3" fill="#0891b2"/>
<text x="1217.0" y="108.1" text-anchor="middle">89.62</text>
<text x="1102.0" y="558.0" text-anchor="middle">F1</text>
<rect x="80.0" y="583.0" width="16.0" height="16.0" rx="2" fill="#2563eb"/>
<text x="104.0" y="596.0" text-anchor="start">kfind-embedded</text>
<rect x="460.0" y="583.0" width="16.0" height="16.0" rx="2" fill="#7c3aed"/>
<text x="484.0" y="596.0" text-anchor="start">kfind-full-pos</text>
<rect x="840.0" y="583.0" width="16.0" height="16.0" rx="2" fill="#059669"/>
<text x="864.0" y="596.0" text-anchor="start">kiwi</text>
<rect x="80.0" y="611.0" width="16.0" height="16.0" rx="2" fill="#d97706"/>
<text x="104.0" y="624.0" text-anchor="start">lindera</text>
<rect x="460.0" y="611.0" width="16.0" height="16.0" rx="2" fill="#dc2626"/>
<text x="484.0" y="624.0" text-anchor="start">mecab-ko</text>
<rect x="840.0" y="611.0" width="16.0" height="16.0" rx="2" fill="#0891b2"/>
<text x="864.0" y="624.0" text-anchor="start">komoran</text>
</svg>
